{"title":"Meskada.2010.DvDRip.XviD.Ac3.Feel-Free","uid":6271281,"size":1049573795,"categoryP":"video","categoryS":"movies","magnet":"?xt=urn:btih:7317686c3882177e53e1e8669c1774e456dba580&amp;dn=Meskada.2010.DvDRip.XviD.Ac3.Feel-Free&amp;tr=udp%3A%2F%2Ftracker.openbittorrent.com%3A80&amp;tr=udp%3A%2F%2Fopen.demonii.com%3A1337&amp;tr=udp%3A%2F%2Ftracker.coppersurfer.tk%3A6969&amp;tr=udp%3A%2F%2Fexodus.desync.com%3A6969","seeders":0,"leechers":1,"uploader":"hiest","files":-1,"time":1301111052,"description":"######## ######## ######## ##          ######## ########  ######## ######## \n##       ##       ##       ##          ##       ##     ## ##       ##       \n##       ##       ##       ##          ##       ##     ## ##       ##       \n######   ######   ######   ##          ######   ########  ######   ######   \n##       ##       ##       ##          ##       ##   ##   ##       ##       \n##       ##       ##       ##          ##       ##    ##  ##       ##       \n##       ######## ######## ########    ##       ##     ## ######## ######## \n\nGenre:Crime | Drama | Thriller \nLanguage:English\nIMDb: &lt;a href=&quot;\nhttp://www.imdb.com/title/tt1461249/&quot; rel=&quot;nofollow&quot; target=&quot;_NEW&quot;&gt;\nhttp://www.imdb.com/title/tt1461249/&lt;/a&gt;\nSource:DVD\nSubtitles:Romana\n\nFormat : AVI\nFormat/Info : Audio Video Interleave\nFile size : 999 MiB\nDuration : 1h 28mn\nOverall bit rate : 1 586 Kbps\n\nVideo\nID : 0\nFormat : MPEG-4 Visual\nFormat profile : Advanced Simple@L5\nFormat settings, BVOP : Yes\nFormat settings, QPel : No\nFormat settings, GMC : No warppoints\nFormat settings, Matrix : Default (H.263)\nMuxing mode : Packed bitstream\nCodec ID : XVID\nCodec ID/Hint : XviD\nDuration : 1h 28mn\nBit rate : 1 129 Kbps\nWidth : 652 pixels\nHeight : 352 pixels\nDisplay aspect ratio : 1.852\nFrame rate : 23.976 fps\nColor space : YUV\nChroma subsampling : 4:2:0\nBit depth : 8 bits\nScan type : Progressive\nBits/(Pixel*Frame) : 0.205\nStream size : 711 MiB (71%)\nWriting library : XviD 1.2.1 (UTC 2008-12-04)\n\nAudio\nID : 1\nFormat : AC-3\nFormat/Info : Audio Coding 3\nMode extension : CM (complete main)\nCodec ID : 2000\nDuration : 1h 28mn\nBit rate mode : Constant\nBit rate : 448 Kbps\nChannel(s) : 6 channels\nChannel positions : Front: L C R, Side: L R, LFE\nSampling rate : 48.0 KHz\nBit depth : 16 bits\nStream size : 282 MiB (28%)\nAlignment : Split accross interleaves\nInterleave, duration : 42 ms (1.00 video frame)\nInterleave, preload duration : 500 ms\n\n\nPlot:\nSmall-town detective Noah Cordin is called to solve a juvenile homicide that occurred during a home burglary in his affluent town of Hilliard...\n\n\nGreets:\n\nINK,CRYS,IMAGINE,LKRG,FXG,3Li,FLAWL3SS,TA,iLLUSiON,ViSiON,DTRG SAFCuk009,LU,TheFalcon007,MYSTiC,PrisM,Noir,WBZ,LAP,Rx,Kingdom,SAFCuk009+Fabreezy,HDLiTE,TWiZTED,ExtraTorrentRG.ELEKTRI4KA,MAGNAT,CM8\nAnd to all the other p2p grps past and present\n\n\n\n\n\n\n================================== &lt;a href=&quot;\nhttp://thepiratebay.se/user/hiest&quot; rel=&quot;nofollow&quot; target=&quot;_NEW&quot;&gt;\nhttp://thepiratebay.se/user/hiest&lt;/a&gt;\n==================================\n\n\n\n\n\n\nScreen Shots:\n &lt;a href=&quot;\nhttp://www.pix2links.com/images/67050608376232400204.png&quot; rel=&quot;nofollow&quot; target=&quot;_NEW&quot;&gt;\nhttp://www.pix2links.com/images/67050608376232400204.png&lt;/a&gt;\n &lt;a href=&quot;\nhttp://www.pix2links.com/images/27494457878040365008.png&quot; rel=&quot;nofollow&quot; target=&quot;_NEW&quot;&gt;\nhttp://www.pix2links.com/images/27494457878040365008.png&lt;/a&gt;\n &lt;a href=&quot;\nhttp://www.pix2links.com/images/46609387805598231162.png&quot; rel=&quot;nofollow&quot; target=&quot;_NEW&quot;&gt;\nhttp://www.pix2links.com/images/46609387805598231162.png&lt;/a&gt;\n &lt;a href=&quot;\nhttp://www.pix2links.com/images/54877851633993507795.png&quot; rel=&quot;nofollow&quot; target=&quot;_NEW&quot;&gt;\nhttp://www.pix2links.com/images/54877851633993507795.png&lt;/a&gt;\n &lt;a href=&quot;\nhttp://www.pix2links.com/images/09219092988575312292.png&quot; rel=&quot;nofollow&quot; target=&quot;_NEW&quot;&gt;\nhttp://www.pix2links.com/images/09219092988575312292.png&lt;/a&gt;\n\n######## ######## ######## ##          ######## ########  ######## ######## \n##       ##       ##       ##          ##       ##     ## ##       ##       \n##       ##       ##       ##          ##       ##     ## ##       ##       \n######   ######   ######   ##          ######   ########  ######   ######   \n##       ##       ##       ##          ##       ##   ##   ##       ##       \n##       ##       ##       ##          ##       ##    ##  ##       ##       \n##       ######## ######## ########    ##       ##     ## ######## ######## ","torrent":{"xt":"urn:btih:7317686c3882177e53e1e8669c1774e456dba580","amp;dn":"Meskada.2010.DvDRip.XviD.Ac3.Feel-Free","amp;tr":["udp%3A%2F%2Ftracker.openbittorrent.com%3A80","udp%3A%2F%2Fopen.demonii.com%3A1337","udp%3A%2F%2Ftracker.coppersurfer.tk%3A6969","udp%3A%2F%2Fexodus.desync.com%3A6969"],"infoHash":"7317686c3882177e53e1e8669c1774e456dba580","infoHashBuffer":{"type":"Buffer","data":[115,23,104,108,56,130,23,126,83,225,232,102,156,23,116,228,86,219,165,128]},"announce":[],"urlList":[]}}